<svg width="512" height="512" viewBox="0 0 512 512" fill="none" xmlns="http://www.w3.org/2000/svg">
<rect width="512" height="512" rx="256" fill="#0F172A"/>
<path d="M71.215 174.8H146.479C172.25 174.8 191.45 178.555 204.079 186.064C216.708 193.403 223.023 206.629 223.023 225.744C223.023 246.907 215.343 261.499 199.983 269.52C185.647 276.859 165.594 280.528 139.823 280.528H137.775V349.136H169.775V354H71.215V349.136H87.855V179.664H71.215V174.8ZM137.775 179.664V275.664H143.151C153.391 275.664 160.474 272.165 164.399 265.168C168.324 258.171 170.287 246.821 170.287 231.12V218.832C170.287 204.325 168.41 194.171 164.655 188.368C161.071 182.565 154.415 179.664 144.687 179.664H137.775ZM369.913 174.8H438.265V179.664H424.185V349.136H438.265V354H360.185V349.136H374.265V189.136H373.241L334.841 354H302.841L257.785 188.368H256.761V349.136H270.841V354H236.025V349.136H250.105V179.664H236.025V174.8H305.145L339.193 306.64L369.913 174.8Z" fill="white"/>
</svg>
